<svg width="50" height="49" viewBox="0 0 50 49" fill="none" xmlns="http://www.w3.org/2000/svg%22%3E
<path d="M49.0375 7.71289H16.0117M10.007 7.71289H1M49.0375 41.2773H16.0117M10.007 41.2773H1M34.0258 24.4951H1M49.0375 24.4951H40.0305M13.0094 1C13.8056 1 14.5693 1.35363 15.1324 1.98308C15.6954 2.61254 16.0117 3.46626 16.0117 4.35645V11.0693C16.0117 11.9595 15.6954 12.8132 15.1324 13.4427C14.5693 14.0722 13.8056 14.4258 13.0094 14.4258C12.2131 14.4258 11.4494 14.0722 10.8864 13.4427C10.3233 12.8132 10.007 11.9595 10.007 11.0693V4.35645C10.007 3.46626 10.3233 2.61254 10.8864 1.98308C11.4494 1.35363 12.2131 1 13.0094 1ZM13.0094 34.5645C13.8056 34.5645 14.5693 34.9181 15.1324 35.5475C15.6954 36.177 16.0117 37.0307 16.0117 37.9209V44.6338C16.0117 45.524 15.6954 46.3777 15.1324 47.0072C14.5693 47.6366 13.8056 47.9902 13.0094 47.9902C12.2131 47.9902 11.4494 47.6366 10.8864 47.0072C10.3233 46.3777 10.007 45.524 10.007 44.6338V37.9209C10.007 37.0307 10.3233 36.177 10.8864 35.5475C11.4494 34.9181 12.2131 34.5645 13.0094 34.5645ZM37.0281 17.7822C37.8244 17.7822 38.5881 18.1359 39.1511 18.7653C39.7141 19.3948 40.0305 20.2485 40.0305 21.1387V27.8516C40.0305 28.7417 39.7141 29.5955 39.1511 30.2249C38.5881 30.8544 37.8244 31.208 37.0281 31.208C36.2319 31.208 35.4682 30.8544 34.9051 30.2249C34.3421 29.5955 34.0258 28.7417 34.0258 27.8516V21.1387C34.0258 20.2485 34.3421 19.3948 34.9051 18.7653C35.4682 18.1359 36.2319 17.7822 37.0281 17.7822Z" stroke="black" stroke-linecap="round" stroke-linejoin="round"/>
</svg>